<svg width="303" height="51" viewBox="0 0 303 51" fill="none" xmlns="http://www.w3.org/2000/svg">
<g clip-path="url(#clip0_1_8)">
<path d="M12.393 15.3054C12.7205 15.7922 13.1027 16.3871 13.4303 17.0901C13.7578 17.7932 14.0308 18.5504 14.1946 19.2534C14.4676 20.4433 14.7405 21.6872 15.0681 23.0392C15.3957 24.3913 15.7232 25.7975 16.0508 27.3118C16.3784 28.772 16.7059 30.2863 16.9789 31.8006C17.2519 33.315 17.5249 34.7752 17.7432 36.1273C18.0162 38.0201 17.8524 39.859 17.3065 41.5896C16.7605 43.3203 15.8324 44.8887 14.5768 46.2948C13.3211 47.6469 11.7378 48.7826 9.88162 49.5939C8.02541 50.4051 5.89622 50.8378 3.54865 50.9459C3.0027 50.9459 2.45676 50.6755 1.91081 50.1888C1.36487 49.7561 1.0373 49.2694 1.0373 48.7826C1.0373 48.2959 1.20108 47.9173 1.74703 47.6469C2.23838 47.3765 2.78433 47.1601 3.27568 47.106C4.20379 46.9979 5.13189 46.8356 6.1146 46.5652C7.0973 46.2948 8.02541 45.8621 8.89892 45.3754C9.77243 44.8346 10.5914 44.2397 11.3011 43.4825C12.0108 42.7253 12.5568 41.86 12.9935 40.8865C13.3211 40.1294 13.4303 39.1559 13.4303 38.0202C13.4303 36.8844 13.3757 35.7487 13.2119 34.6129C13.0481 33.4772 12.8843 32.3955 12.6114 31.4221C12.393 30.3945 12.1746 29.6373 12.0108 29.0965C11.6832 29.421 11.3011 29.7455 10.8643 30.07C10.4276 30.3945 9.88162 30.719 9.33568 31.0435C8.78973 31.368 8.1346 31.5843 7.47946 31.7466C6.82433 31.9088 6.1146 31.9629 5.40487 31.9629C4.64054 31.9629 3.98541 31.6384 3.33027 31.2057C2.67514 30.7731 2.12919 30.1241 1.63784 29.3669C1.14649 28.6098 0.764326 27.7444 0.491353 26.7169C0.21838 25.7434 0.0545959 24.6617 0.0545959 23.5801C0.163785 20.9841 0.81892 18.6585 2.0746 16.6575C3.33027 14.6564 5.29568 13.088 8.08 11.9523C8.29838 11.9523 8.57135 11.8441 8.95351 11.8441C9.33568 11.8441 9.71784 11.8441 10.1 11.8441C10.4822 11.8441 10.8643 11.8982 11.2465 12.0064C11.6286 12.1145 11.9562 12.2227 12.1746 12.3849C12.6659 12.7094 12.8843 13.2503 12.8843 13.8993C12.8843 14.5483 12.7205 15.035 12.4476 15.3054H12.393ZM4.14919 24.175C4.14919 24.6617 4.14919 25.2025 4.25838 25.7434C4.36757 26.3383 4.64054 26.7709 5.13189 26.9873C5.67784 27.3118 6.27838 27.3118 7.0427 27.0954C7.80703 26.8791 8.51676 26.5005 9.17189 26.0138C9.77243 25.527 10.2092 24.9862 10.373 24.4454C10.5914 23.8505 10.5368 23.0933 10.373 22.0657C10.1546 21.0923 9.93622 20.0106 9.66324 18.929C9.39027 17.8473 9.22649 16.8738 9.1173 16.0085C8.57135 16.2789 8.02541 16.6575 7.42487 17.0901C6.82433 17.5769 6.27838 18.1718 5.84162 18.8749C5.35027 19.5779 4.96811 20.3892 4.64054 21.2545C4.31297 22.1198 4.14919 23.0933 4.14919 24.1209V24.175Z" fill="black"/>
<path d="M39.0351 9.19405C39.1989 10.3839 39.3627 11.6819 39.4719 13.0339C39.5811 14.386 39.6903 15.7921 39.7449 17.1442C39.7995 18.4963 39.854 19.8483 39.854 21.1463C39.854 22.4443 39.854 23.6341 39.7995 24.6617C41.2189 25.6352 42.0378 26.4464 42.3108 27.2036C42.5838 27.9608 42.6384 28.6097 42.42 29.1506C42.147 29.9077 41.7103 30.3404 41.0005 30.3404C40.2908 30.3404 39.5265 30.1241 38.653 29.6373C38.0524 30.07 37.3427 30.5567 36.5784 31.0435C35.814 31.5302 34.9405 32.017 34.067 32.4496C33.1935 32.8823 32.32 33.3149 31.4465 33.6394C30.573 33.9639 29.754 34.2343 29.0443 34.3425C27.6249 34.5588 26.3692 34.3425 25.2773 33.5854C24.1854 32.8282 23.4211 31.7465 23.0389 30.2863C22.7659 29.3128 22.7113 28.2853 22.8205 27.2036C22.9297 26.1219 23.2573 25.1485 23.8032 24.175C24.3492 23.2015 25.0589 22.3362 25.9324 21.5249C26.8059 20.7678 27.8978 20.1188 29.0989 19.6861C29.4265 19.5779 29.8086 19.4698 30.3546 19.3616C30.9005 19.2534 31.4465 19.2534 32.047 19.2534C32.6476 19.2534 33.2481 19.4157 33.8486 19.632C34.4492 19.8483 35.0497 20.2269 35.5411 20.7137C35.5411 19.9565 35.5411 19.1453 35.5411 18.28C35.5411 17.4146 35.5411 16.4952 35.4319 15.5758C35.3227 14.6564 35.3227 13.7911 35.2681 13.0339C35.2135 12.2227 35.1043 11.5737 35.0497 10.9788C34.9405 10.3298 34.7222 9.95121 34.2854 9.78896C33.8486 9.62672 33.3573 9.6808 32.7567 9.89713C31.7195 10.2216 30.4638 10.9247 29.0989 11.8982C27.6795 12.8717 26.3692 13.9533 25.1135 15.0891C24.7313 15.4676 24.2946 15.6299 23.7486 15.6299C23.2573 15.6299 22.8205 15.4136 22.493 15.035C22.1654 14.7105 21.947 14.2778 21.8924 13.8452C21.8378 13.4125 22.0016 12.9258 22.4384 12.3849C23.2027 11.6278 24.0216 10.8165 24.9497 10.0053C25.8778 9.19405 26.8059 8.4369 27.8432 7.7879C28.8259 7.13891 29.8632 6.544 30.9005 6.11134C31.9378 5.67868 32.9751 5.46235 34.067 5.40826C35.5957 5.40826 36.7967 5.67868 37.6157 6.43584C38.4346 7.19299 38.9259 8.05832 39.1443 9.19405H39.0351ZM31.4465 23.1474C30.9005 23.2556 30.3 23.526 29.6449 23.9586C28.9897 24.3913 28.4438 24.878 27.9524 25.473C27.4611 26.0679 27.0789 26.7169 26.8605 27.4199C26.6422 28.123 26.5876 28.8261 26.8605 29.5292C26.9697 29.7996 27.1335 29.9618 27.4065 30.1241C27.6795 30.2322 28.007 30.2863 28.3346 30.1781C29.3719 29.9618 30.573 29.5292 31.8832 28.9342C33.1935 28.2853 34.2854 27.6363 35.0497 26.8791C35.0497 26.6087 34.9405 26.2842 34.6676 25.8515C34.3946 25.4189 34.1216 25.0403 33.7395 24.6076C33.4119 24.175 33.0297 23.8505 32.593 23.526C32.1562 23.2015 31.774 23.0933 31.4465 23.1474V23.1474Z" fill="black"/>
<path d="M50.1178 12.2768C50.1178 12.9799 50.227 13.8452 50.3362 14.8187C50.4454 15.8462 50.5546 16.8738 50.7184 18.0095C50.8276 19.0912 50.9914 20.2269 51.1551 21.3086C51.3189 22.3902 51.4281 23.3637 51.5919 24.2831C52.0833 23.3096 52.6838 22.1739 53.3389 20.7678C54.0487 19.3616 54.7584 18.0636 55.5227 16.7656C56.287 15.4677 57.0514 14.386 57.8703 13.5207C58.6892 12.6554 59.3989 12.1686 60.0541 12.1686C60.7638 12.1686 61.4189 12.4931 61.9649 13.1962C62.5654 13.8452 63.0568 14.6564 63.4935 15.6299C63.9303 16.6034 64.3124 17.5769 64.64 18.6585C64.9676 19.7402 65.2405 20.7137 65.4589 21.5249C65.6227 20.9841 65.8411 20.3351 66.1687 19.632C66.4416 18.9289 66.7692 18.1718 67.0968 17.4146C67.4243 16.6575 67.8065 15.9003 68.1887 15.1972C68.6254 14.4401 69.0622 13.7911 69.5535 13.2503C70.0995 12.6554 70.7546 12.2227 71.4097 11.8982C72.0649 11.6278 72.5562 11.4655 72.8292 11.4655C73.2114 11.4655 73.7027 11.5737 74.2487 11.8441C74.7946 12.0604 75.3405 12.3849 75.9411 12.7635C76.487 13.1421 77.033 13.6288 77.5243 14.1697C78.0157 14.7105 78.4524 15.2513 78.7254 15.8462C79.326 17.0361 79.8173 18.28 80.1995 19.6861C80.5816 21.0923 80.8546 22.3902 81.0184 23.6341C81.1822 24.878 81.2914 26.0138 81.4005 26.9873C81.4551 27.9608 81.5097 28.6638 81.5643 29.0424C81.5643 29.5832 81.5097 30.0159 81.346 30.2863C81.2368 30.5567 80.9638 30.7731 80.6362 30.9894C80.1449 31.2057 79.7627 31.2598 79.3805 31.2057C79.053 31.1516 78.7254 30.9894 78.507 30.7731C78.2887 30.5567 78.1249 30.2863 77.9611 30.0159C77.8519 29.7455 77.7427 29.4751 77.6881 29.2587C77.5789 28.2853 77.4151 27.2577 77.2514 26.2301C77.0876 25.2025 76.9238 24.175 76.76 23.2015C76.5962 22.228 76.3778 21.3086 76.1595 20.4973C75.9411 19.6861 75.6681 18.9289 75.3951 18.28C75.286 18.1177 75.1768 17.9014 74.9584 17.5769C74.74 17.3065 74.5216 17.0361 74.3033 16.7656C74.0849 16.4952 73.8119 16.2789 73.5935 16.1166C73.3751 15.9544 73.2114 15.8462 73.1568 15.7922C72.72 15.7922 72.2832 16.1707 71.7919 16.982C71.3005 17.7932 70.8638 18.7667 70.427 19.8484C69.9903 20.9841 69.6081 22.1739 69.226 23.3637C68.8438 24.6076 68.5708 25.6352 68.407 26.5005C68.407 27.6363 68.1887 28.4475 67.7519 28.9883C67.3151 29.5292 66.8784 29.7996 66.387 29.7996C65.8957 29.7996 65.4043 29.6373 64.8584 29.2587C64.3124 28.8802 63.9303 28.4475 63.7665 28.0148C63.4935 27.3118 63.2206 26.5546 62.893 25.6893C62.5654 24.824 62.2924 23.9586 61.9649 23.0392C61.6373 22.1198 61.3097 21.2545 60.9822 20.3892C60.6546 19.5239 60.327 18.7667 60.0541 18.0636C59.4535 18.8749 58.853 19.7943 58.2524 20.7678C57.6519 21.7412 57.106 22.7688 56.56 23.7964C56.0141 24.824 55.4681 25.8515 54.9768 26.8791C54.4854 27.9067 53.9941 28.772 53.5573 29.5832C53.2297 30.07 52.9022 30.5026 52.5746 30.8271C52.247 31.2057 51.8103 31.368 51.3189 31.368C50.9914 31.368 50.6092 31.2057 50.227 30.8812C49.8449 30.5567 49.4627 30.1782 49.1351 29.6914C48.8076 29.2047 48.48 28.6638 48.207 28.0689C47.9341 27.474 47.7157 26.8791 47.6065 26.2301C47.2789 24.3913 46.9514 22.3362 46.733 20.1188C46.5146 17.9014 46.2416 15.7381 46.0233 13.5748C46.0233 12.8176 46.0233 12.1686 46.2962 11.5196C46.5692 10.8706 47.006 10.492 47.7157 10.2757C48.48 10.1675 49.026 10.2757 49.4081 10.6002C49.7903 10.9247 50.0633 11.4655 50.1178 12.2227V12.2768Z" fill="black"/>
<path d="M102.747 17.9555C101.055 18.9289 99.1984 19.7402 97.233 20.281C95.2676 20.8218 93.1384 21.0923 90.9 21.0923C91.0092 22.6066 91.4459 23.7964 92.2103 24.7158C92.9746 25.5811 93.9573 26.1219 95.1584 26.2842C95.8681 26.3924 96.5778 26.3383 97.2876 26.2301C97.9973 26.1219 98.707 25.9056 99.3076 25.6352C99.9627 25.3648 100.509 25.0403 101.055 24.7158C101.601 24.3913 102.037 24.0127 102.419 23.6882C102.802 23.3637 103.238 23.0933 103.675 22.9851C104.112 22.877 104.439 22.877 104.658 22.9851C105.258 23.2015 105.477 23.8505 105.313 24.9321C104.603 26.3383 103.621 27.474 102.31 28.4475C101 29.421 99.526 30.0159 97.9427 30.2863C96.5233 30.5567 95.1038 30.5026 93.6297 30.07C92.1557 29.6914 90.7908 28.9342 89.6443 27.7985C88.6616 26.825 87.8973 25.6352 87.3514 24.2831C86.8054 22.9311 86.4778 21.579 86.3687 20.1188C86.2595 18.7667 86.3687 17.5228 86.7508 16.2789C87.133 15.0891 87.6789 14.0074 88.4978 13.088C89.2622 12.1686 90.2449 11.4114 91.446 10.7625C92.647 10.1675 94.0119 9.78897 95.5951 9.73488C97.4514 9.62672 99.1984 9.95121 100.727 10.7625C102.256 11.5737 103.348 12.7094 103.948 14.2237C104.276 15.035 104.385 15.7381 104.221 16.3871C104.057 16.982 103.621 17.5228 102.856 18.0095L102.747 17.9555ZM95.213 13.5207C94.7762 13.6288 94.2849 13.737 93.7935 13.9533C93.3022 14.1697 92.8108 14.4401 92.4287 14.7646C91.9919 15.0891 91.6643 15.4677 91.3368 15.8462C91.0092 16.2789 90.8454 16.7116 90.7908 17.2524C91.5551 17.2524 92.3741 17.1983 93.2476 17.036C94.1211 16.9279 94.9946 16.7656 95.8681 16.5493C96.7416 16.333 97.5059 16.1166 98.2157 15.8462C98.9254 15.5758 99.5259 15.3054 100.017 14.9809C99.6897 14.1697 99.0346 13.6288 98.1065 13.4666C97.1784 13.2503 96.1957 13.2503 95.2676 13.4666L95.213 13.5207Z" fill="black"/>
<path d="M143.256 16.5493C142.929 16.7116 142.601 16.7656 142.164 16.7116C141.728 16.6575 141.345 16.3871 141.072 15.9003C140.363 14.9809 139.544 14.5483 138.506 14.5483C137.578 14.5483 136.759 14.7646 136.05 15.1432C135.34 15.5758 134.685 16.1167 134.139 16.7656C133.593 17.4146 133.156 18.1718 132.774 18.983C132.446 19.7943 132.174 20.6055 132.064 21.4708C131.846 22.9852 132.064 24.2831 132.829 25.3107C133.593 26.3383 134.739 26.8791 136.323 26.8791C137.578 26.8791 138.998 26.6628 140.636 26.122C142.219 25.5811 143.748 24.8781 145.112 24.0127C145.713 23.7423 146.314 23.5801 146.805 23.5801C147.351 23.5801 147.788 23.7964 148.115 24.3372C148.552 25.0403 148.443 25.7434 147.788 26.4465C147.132 27.1495 146.259 27.7985 145.167 28.3393C144.075 28.9343 142.929 29.4751 141.728 29.9077C140.526 30.3404 139.325 30.6649 138.07 30.8812C136.869 31.0976 135.613 31.0976 134.412 30.8812C133.211 30.719 132.064 30.2863 131.027 29.6373C129.389 28.5016 128.352 26.9332 128.024 24.824C127.697 22.7688 127.806 20.6055 128.461 18.3881C128.734 17.5769 129.116 16.7116 129.553 15.9003C130.044 15.035 130.59 14.2778 131.3 13.5748C132.01 12.8717 132.719 12.2768 133.538 11.79C134.357 11.3033 135.285 10.9788 136.268 10.7625C137.906 10.4921 139.435 10.6543 140.909 11.2492C142.383 11.8441 143.365 12.9258 143.857 14.4401C143.966 14.7646 143.966 15.1432 143.857 15.5217C143.748 15.9003 143.529 16.1707 143.147 16.3871L143.256 16.5493Z" fill="black"/>
<path d="M157.396 2.86638C157.615 7.57158 157.997 12.439 158.488 17.5228C158.979 22.6066 159.58 27.3659 160.181 31.9629C160.29 33.8558 159.798 34.8293 158.597 34.8833C158.324 34.8833 158.051 34.7752 157.833 34.6129C157.615 34.4507 157.342 34.1803 157.123 33.8558C156.905 33.5313 156.687 33.2068 156.523 32.8823C156.304 32.5578 156.195 32.2333 156.141 31.9629C155.813 29.7455 155.485 27.4199 155.158 24.9321C154.83 22.4443 154.557 20.0106 154.339 17.5228C154.121 15.035 153.902 12.6013 153.738 10.2216C153.575 7.84199 153.465 5.67868 153.411 3.67762C153.52 2.65005 153.629 1.78473 153.848 1.02757C154.066 0.270414 154.503 0 155.212 0C155.977 0 156.468 0.324496 156.796 0.865323C157.123 1.40615 157.287 2.05514 157.342 2.86638H157.396Z" fill="black"/>
<path d="M181.472 17.9555C179.78 18.9289 177.924 19.7402 175.958 20.281C173.993 20.8218 171.864 21.0923 169.625 21.0923C169.735 22.6066 170.171 23.7964 170.936 24.7158C171.7 25.5811 172.683 26.1219 173.884 26.2842C174.594 26.3924 175.303 26.3383 176.013 26.2301C176.723 26.1219 177.432 25.9056 178.033 25.6352C178.688 25.3648 179.234 25.0403 179.78 24.7158C180.326 24.3913 180.763 24.0127 181.145 23.6882C181.527 23.3637 181.964 23.0933 182.401 22.9851C182.837 22.877 183.165 22.877 183.383 22.9851C183.984 23.2015 184.202 23.8505 184.038 24.9321C183.329 26.3383 182.346 27.474 181.036 28.4475C179.725 29.421 178.251 30.0159 176.668 30.2863C175.249 30.5567 173.829 30.5026 172.355 30.07C170.881 29.6914 169.516 28.9342 168.37 27.7985C167.387 26.825 166.623 25.6352 166.077 24.2831C165.531 22.9311 165.203 21.579 165.094 20.1188C164.985 18.7667 165.094 17.5228 165.476 16.2789C165.858 15.0891 166.404 14.0074 167.223 13.088C167.988 12.1686 168.97 11.4114 170.171 10.7625C171.372 10.1675 172.737 9.78897 174.321 9.73488C176.177 9.62672 177.924 9.95121 179.452 10.7625C180.981 11.5737 182.073 12.7094 182.674 14.2237C183.001 15.035 183.11 15.7381 182.947 16.3871C182.783 16.982 182.346 17.5228 181.582 18.0095L181.472 17.9555ZM173.938 13.5207C173.502 13.6288 173.01 13.737 172.519 13.9533C172.028 14.1697 171.536 14.4401 171.154 14.7646C170.717 15.0891 170.39 15.4677 170.062 15.8462C169.735 16.2789 169.571 16.7116 169.516 17.2524C170.281 17.2524 171.099 17.1983 171.973 17.036C172.847 16.9279 173.72 16.7656 174.594 16.5493C175.467 16.333 176.231 16.1166 176.941 15.8462C177.651 15.5758 178.251 15.3054 178.743 14.9809C178.415 14.1697 177.76 13.6288 176.832 13.4666C175.904 13.2503 174.921 13.2503 173.993 13.4666L173.938 13.5207Z" fill="black"/>
<path d="M205.003 9.19405C205.166 10.3839 205.33 11.6819 205.439 13.0339C205.549 14.386 205.658 15.7921 205.712 17.1442C205.767 18.4963 205.822 19.8483 205.822 21.1463C205.822 22.4443 205.822 23.6341 205.767 24.6617C207.186 25.6352 208.005 26.4464 208.278 27.2036C208.551 27.9608 208.606 28.6097 208.388 29.1506C208.115 29.9077 207.678 30.3404 206.968 30.3404C206.258 30.3404 205.494 30.1241 204.621 29.6373C204.02 30.07 203.31 30.5567 202.546 31.0435C201.782 31.5302 200.908 32.017 200.035 32.4496C199.161 32.8823 198.288 33.3149 197.414 33.6394C196.541 33.9639 195.722 34.2343 195.012 34.3425C193.592 34.5588 192.337 34.3425 191.245 33.5854C190.153 32.8282 189.389 31.7465 189.006 30.2863C188.733 29.3128 188.679 28.2853 188.788 27.2036C188.897 26.1219 189.225 25.1485 189.771 24.175C190.317 23.2015 191.026 22.3362 191.9 21.5249C192.774 20.7678 193.865 20.1188 195.066 19.6861C195.394 19.5779 195.776 19.4698 196.322 19.3616C196.868 19.2534 197.414 19.2534 198.015 19.2534C198.615 19.2534 199.216 19.4157 199.816 19.632C200.417 19.8483 201.017 20.2269 201.509 20.7137C201.509 19.9565 201.509 19.1453 201.509 18.28C201.509 17.4146 201.509 16.4952 201.399 15.5758C201.29 14.6564 201.29 13.7911 201.236 13.0339C201.181 12.2227 201.072 11.5737 201.017 10.9788C200.908 10.3298 200.69 9.95121 200.253 9.78896C199.816 9.62672 199.325 9.6808 198.724 9.89713C197.687 10.2216 196.431 10.9247 195.066 11.8982C193.647 12.8717 192.337 13.9533 191.081 15.0891C190.699 15.4676 190.262 15.6299 189.716 15.6299C189.225 15.6299 188.788 15.4136 188.461 15.035C188.133 14.7105 187.915 14.2778 187.86 13.8452C187.805 13.4125 187.969 12.9258 188.406 12.3849C189.17 11.6278 189.989 10.8165 190.917 10.0053C191.845 9.19405 192.774 8.4369 193.811 7.7879C194.794 7.13891 195.831 6.544 196.868 6.11134C197.905 5.67868 198.943 5.46235 200.035 5.40826C201.563 5.40826 202.764 5.67868 203.583 6.43584C204.402 7.19299 204.893 8.05832 205.112 9.19405H205.003ZM197.414 23.1474C196.868 23.2556 196.268 23.526 195.612 23.9586C194.957 24.3913 194.411 24.878 193.92 25.473C193.429 26.0679 193.046 26.7169 192.828 27.4199C192.61 28.123 192.555 28.8261 192.828 29.5292C192.937 29.7996 193.101 29.9618 193.374 30.1241C193.647 30.2322 193.975 30.2863 194.302 30.1781C195.339 29.9618 196.541 29.5292 197.851 28.9342C199.161 28.2853 200.253 27.6363 201.017 26.8791C201.017 26.6087 200.908 26.2842 200.635 25.8515C200.362 25.4189 200.089 25.0403 199.707 24.6076C199.379 24.175 198.997 23.8505 198.561 23.526C198.124 23.2015 197.742 23.0933 197.414 23.1474V23.1474Z" fill="black"/>
<path d="M231.699 10.8165C230.935 11.2492 230.116 11.6819 229.243 12.1686C228.369 12.6554 227.55 13.1962 226.677 13.8452C225.803 14.4942 225.039 15.1972 224.275 16.0626C223.51 16.9279 222.801 17.9014 222.2 19.0912C221.326 20.7137 220.726 22.3902 220.453 24.1209C220.125 25.8515 219.962 27.5281 219.852 29.1506C219.852 29.9077 219.689 30.719 219.306 31.5302C218.924 32.3415 218.433 32.72 217.778 32.72C216.959 32.72 216.304 32.2874 215.758 31.4761C215.212 30.6649 214.939 29.7996 214.721 29.0424C213.956 25.9597 213.356 22.9311 212.864 19.9024C212.373 16.8738 211.991 13.8993 211.609 10.9247C211.609 10.3298 211.772 9.95122 212.155 9.73489C212.537 9.57264 212.974 9.51856 213.41 9.51856C213.956 9.51856 214.448 9.6808 214.939 9.89714C215.43 10.1135 215.703 10.438 215.812 10.9247C215.976 12.5472 216.195 14.2238 216.468 15.9544C216.741 17.685 217.014 19.1994 217.232 20.4433C217.396 18.983 217.887 17.5228 218.651 16.1707C219.416 14.7646 220.398 13.5207 221.545 12.3849C222.691 11.2492 224.002 10.3298 225.476 9.51856C226.95 8.7614 228.424 8.22057 229.952 7.95016C230.608 7.84199 231.154 7.84199 231.59 7.95016C232.027 8.05832 232.355 8.16649 232.518 8.38282C232.682 8.59915 232.737 8.92365 232.628 9.41039C232.518 9.89714 232.191 10.3298 231.59 10.7084L231.699 10.8165Z" fill="black"/>
<path d="M249.552 17.1983C250.316 19.3075 251.408 20.3892 252.828 20.3892C253.756 20.3892 254.684 20.1728 255.666 19.7943C256.649 19.4157 257.632 18.9289 258.56 18.334C259.543 17.7391 260.416 17.1442 261.29 16.4952C262.163 15.8462 262.928 15.3054 263.583 14.7646C264.019 14.4401 264.456 14.2778 264.838 14.2238C265.275 14.1697 265.657 14.2778 266.094 14.6564C266.422 14.9809 266.695 15.3595 266.804 15.9003C266.913 16.4411 266.804 16.8738 266.531 17.1983C265.384 18.3881 264.129 19.4698 262.764 20.4433C261.399 21.4168 260.034 22.2821 258.669 22.9851C257.304 23.6882 256.049 24.2291 254.848 24.6076C253.646 24.9862 252.718 25.1485 252.009 25.1485C250.371 25.0403 249.224 24.6076 248.515 23.8505C247.805 23.0933 247.15 22.0117 246.604 20.6055C246.385 20.0106 246.058 19.4698 245.676 19.0912C245.294 18.7126 244.638 18.4963 243.874 18.4963C242.728 18.4963 241.745 18.983 240.871 19.9024C239.998 20.8218 239.343 21.9035 238.851 23.2015C238.633 23.6882 238.251 23.9586 237.759 24.0127C237.268 24.0668 236.941 24.0668 236.722 24.0127C236.122 23.9046 235.63 23.6341 235.357 23.3096C235.03 22.9851 234.921 22.6066 234.921 22.228C235.03 21.0382 235.412 19.9024 236.067 18.8749C236.722 17.8473 237.486 16.9279 238.415 16.1707C239.343 15.4136 240.325 14.7646 241.472 14.3319C242.564 13.8993 243.656 13.6829 244.693 13.6829C246.931 13.6829 248.515 14.8727 249.497 17.3065L249.552 17.1983Z" fill="black"/>
<path d="M285.584 17.1983C286.349 19.3075 287.441 20.3892 288.86 20.3892C289.788 20.3892 290.716 20.1728 291.699 19.7943C292.682 19.4157 293.664 18.9289 294.592 18.334C295.575 17.7391 296.449 17.1442 297.322 16.4952C298.196 15.8462 298.96 15.3054 299.615 14.7646C300.052 14.4401 300.489 14.2778 300.871 14.2238C301.308 14.1697 301.69 14.2778 302.127 14.6564C302.454 14.9809 302.727 15.3595 302.836 15.9003C302.945 16.4411 302.836 16.8738 302.563 17.1983C301.417 18.3881 300.161 19.4698 298.796 20.4433C297.431 21.4168 296.067 22.2821 294.702 22.9851C293.337 23.6882 292.081 24.2291 290.88 24.6076C289.679 24.9862 288.751 25.1485 288.041 25.1485C286.403 25.0403 285.257 24.6076 284.547 23.8505C283.837 23.0933 283.182 22.0117 282.636 20.6055C282.418 20.0106 282.09 19.4698 281.708 19.0912C281.326 18.7126 280.671 18.4963 279.907 18.4963C278.76 18.4963 277.777 18.983 276.904 19.9024C276.03 20.8218 275.375 21.9035 274.884 23.2015C274.665 23.6882 274.283 23.9586 273.792 24.0127C273.301 24.0668 272.973 24.0668 272.755 24.0127C272.154 23.9046 271.663 23.6341 271.39 23.3096C271.062 22.9851 270.953 22.6066 270.953 22.228C271.062 21.0382 271.444 19.9024 272.099 18.8749C272.755 17.8473 273.519 16.9279 274.447 16.1707C275.375 15.4136 276.358 14.7646 277.504 14.3319C278.596 13.8993 279.688 13.6829 280.725 13.6829C282.964 13.6829 284.547 14.8727 285.53 17.3065L285.584 17.1983Z" fill="black"/>
</g>
<defs>
<clipPath id="clip0_1_8">
<rect width="303" height="51" fill="white"/>
</clipPath>
</defs>
</svg>
