<svg width="297" height="51" viewBox="0 0 297 51" fill="none" xmlns="http://www.w3.org/2000/svg">
<path d="M12.272 15.336C12.6133 15.8053 12.9333 16.4027 13.232 17.128C13.5733 17.8107 13.8293 18.5147 14 19.24C14.256 20.392 14.5333 21.6507 14.832 23.016C15.1733 24.3387 15.4933 25.7253 15.792 27.176C16.1333 28.6267 16.432 30.0987 16.688 31.592C16.9867 33.0853 17.2427 34.5147 17.456 35.88C17.712 37.7573 17.5627 39.5493 17.008 41.256C16.496 43.0053 15.6213 44.5627 14.384 45.928C13.1467 47.2933 11.6107 48.3813 9.776 49.192C7.94133 50.0027 5.872 50.4507 3.568 50.536C3.056 50.4933 2.52267 50.2373 1.968 49.768C1.41333 49.3413 1.136 48.8933 1.136 48.424C1.09333 47.9547 1.30667 47.5707 1.776 47.272C2.288 47.016 2.8 46.8453 3.312 46.76C4.208 46.6747 5.12533 46.4827 6.064 46.184C7.04533 45.928 7.96267 45.544 8.816 45.032C9.66933 44.52 10.4373 43.9013 11.12 43.176C11.8453 42.4507 12.4 41.5973 12.784 40.616C13.0827 39.848 13.232 38.9093 13.232 37.8C13.232 36.648 13.1467 35.5173 12.976 34.408C12.848 33.2987 12.656 32.2533 12.4 31.272C12.1867 30.248 11.9947 29.48 11.824 28.968C11.5253 29.2667 11.1413 29.5867 10.672 29.928C10.2453 30.2693 9.75467 30.5893 9.2 30.888C8.64533 31.1867 8.02667 31.4213 7.344 31.592C6.704 31.7627 6.04267 31.8267 5.36 31.784C4.63467 31.7413 3.952 31.4853 3.312 31.016C2.71467 30.5467 2.18133 29.9493 1.712 29.224C1.24267 28.456 0.858667 27.5813 0.56 26.6C0.304 25.6187 0.176 24.5947 0.176 23.528C0.261333 20.968 0.901333 18.7067 2.096 16.744C3.33333 14.7387 5.296 13.1813 7.984 12.072C8.19733 12.0293 8.47467 11.9867 8.816 11.944C9.2 11.9013 9.584 11.9013 9.968 11.944C10.352 11.944 10.7147 11.9867 11.056 12.072C11.44 12.1573 11.76 12.2853 12.016 12.456C12.4853 12.7973 12.72 13.288 12.72 13.928C12.72 14.568 12.5707 15.0373 12.272 15.336ZM4.208 24.104C4.208 24.5733 4.25067 25.1067 4.336 25.704C4.42133 26.2587 4.69867 26.664 5.168 26.92C5.68 27.2187 6.29867 27.2613 7.024 27.048C7.792 26.8347 8.496 26.472 9.136 25.96C9.73333 25.4907 10.1173 24.9787 10.288 24.424C10.5013 23.8267 10.5013 23.0373 10.288 22.056C10.0747 21.0747 9.84 20.0507 9.584 18.984C9.328 17.9173 9.15733 16.9573 9.072 16.104C8.56 16.36 8.00533 16.7227 7.408 17.192C6.85333 17.6613 6.34133 18.2587 5.872 18.984C5.40267 19.6667 4.99733 20.4347 4.656 21.288C4.35733 22.1413 4.208 23.08 4.208 24.104ZM38.3115 9.32C38.4822 10.5147 38.6102 11.7947 38.6955 13.16C38.8235 14.4827 38.9088 15.8267 38.9515 17.192C39.0368 18.5573 39.0795 19.88 39.0795 21.16C39.0795 22.44 39.0582 23.592 39.0155 24.616C40.3808 25.5547 41.1915 26.3867 41.4475 27.112C41.7462 27.8373 41.7888 28.4773 41.5755 29.032C41.3195 29.8 40.8502 30.2053 40.1675 30.248C39.5275 30.248 38.7808 30.0133 37.9275 29.544C37.3302 29.9707 36.6475 30.44 35.8795 30.952C35.1115 31.4213 34.3008 31.8907 33.4475 32.36C32.5942 32.7867 31.7408 33.1707 30.8875 33.512C30.0342 33.8533 29.2448 34.088 28.5195 34.216C27.1542 34.4293 25.9168 34.1733 24.8075 33.448C23.7408 32.7227 23.0155 31.6347 22.6315 30.184C22.3755 29.2027 22.3115 28.2 22.4395 27.176C22.5675 26.1093 22.8875 25.1067 23.3995 24.168C23.9115 23.1867 24.5942 22.312 25.4475 21.544C26.3435 20.776 27.3888 20.1787 28.5835 19.752C28.8822 19.624 29.2875 19.5173 29.7995 19.432C30.3542 19.3467 30.9088 19.3253 31.4635 19.368C32.0608 19.368 32.6582 19.4747 33.2555 19.688C33.8528 19.9013 34.4075 20.264 34.9195 20.776C34.9195 20.0507 34.8982 19.2613 34.8555 18.408C34.8555 17.512 34.8342 16.616 34.7915 15.72C34.7488 14.824 34.6848 13.992 34.5995 13.224C34.5568 12.4133 34.4928 11.7307 34.4075 11.176C34.3222 10.536 34.0662 10.152 33.6395 10.024C33.2555 9.85333 32.7648 9.87466 32.1675 10.088C31.1435 10.4293 29.9488 11.0907 28.5835 12.072C27.2182 13.0533 25.9168 14.0987 24.6795 15.208C24.2955 15.592 23.8475 15.7627 23.3355 15.72C22.8662 15.6773 22.4608 15.4853 22.1195 15.144C21.7782 14.8027 21.5862 14.4187 21.5435 13.992C21.5008 13.5227 21.6715 13.032 22.0555 12.52C22.7808 11.752 23.5915 10.9627 24.4875 10.152C25.3835 9.34133 26.3222 8.616 27.3035 7.976C28.2848 7.29333 29.2875 6.73867 30.3115 6.312C31.3355 5.88533 32.3595 5.65066 33.3835 5.608C34.8768 5.56533 36.0288 5.90667 36.8395 6.632C37.6502 7.31467 38.1408 8.21066 38.3115 9.32ZM30.8875 23.08C30.3328 23.208 29.7355 23.4853 29.0955 23.912C28.4982 24.296 27.9435 24.7867 27.4315 25.384C26.9622 25.9387 26.5995 26.5787 26.3435 27.304C26.1302 27.9867 26.1302 28.6693 26.3435 29.352C26.4288 29.608 26.5995 29.8 26.8555 29.928C27.1542 30.056 27.4742 30.0773 27.8155 29.992C28.8395 29.7787 29.9915 29.3733 31.2715 28.776C32.5942 28.136 33.6395 27.4533 34.4075 26.728C34.4075 26.472 34.2795 26.152 34.0235 25.768C33.7675 25.3413 33.4688 24.936 33.1275 24.552C32.7862 24.1253 32.4022 23.7627 31.9755 23.464C31.5915 23.1653 31.2288 23.0373 30.8875 23.08ZM49.1515 12.328C49.1942 13.0107 49.2582 13.864 49.3435 14.888C49.4715 15.8693 49.5995 16.9147 49.7275 18.024C49.8555 19.0907 49.9835 20.1573 50.1115 21.224C50.2822 22.2907 50.4315 23.272 50.5595 24.168C51.0288 23.2293 51.6048 22.0773 52.2875 20.712C52.9702 19.3467 53.6742 18.0453 54.3995 16.808C55.1675 15.528 55.9355 14.4613 56.7035 13.608C57.5142 12.712 58.2395 12.264 58.8795 12.264C59.5622 12.264 60.1808 12.6053 60.7355 13.288C61.3328 13.928 61.8448 14.7173 62.2715 15.656C62.6982 16.5947 63.0608 17.5973 63.3595 18.664C63.7008 19.7307 63.9782 20.6693 64.1915 21.48C64.3622 20.9253 64.5755 20.3067 64.8315 19.624C65.1302 18.8987 65.4288 18.1733 65.7275 17.448C66.0688 16.68 66.4315 15.9333 66.8155 15.208C67.2422 14.4827 67.6902 13.8427 68.1595 13.288C68.7142 12.6907 69.3115 12.264 69.9515 12.008C70.5915 11.7093 71.0608 11.56 71.3595 11.56C71.7435 11.56 72.1915 11.688 72.7035 11.944C73.2582 12.1573 73.8128 12.456 74.3675 12.84C74.9222 13.224 75.4342 13.6933 75.9035 14.248C76.4155 14.76 76.8208 15.2933 77.1195 15.848C77.7168 17 78.1862 18.2587 78.5275 19.624C78.9115 20.9893 79.1888 22.2907 79.3595 23.528C79.5302 24.7653 79.6368 25.8747 79.6795 26.856C79.7648 27.7947 79.8288 28.456 79.8715 28.84C79.8715 29.3947 79.8075 29.8213 79.6795 30.12C79.5515 30.376 79.3168 30.5893 78.9755 30.76C78.5062 30.9733 78.1008 31.0587 77.7595 31.016C77.4182 30.9307 77.1408 30.7813 76.9275 30.568C76.7142 30.3547 76.5435 30.12 76.4155 29.864C76.2875 29.5653 76.2022 29.3093 76.1595 29.096C76.0315 28.1147 75.8822 27.112 75.7115 26.088C75.5835 25.064 75.4342 24.0827 75.2635 23.144C75.0928 22.1627 74.8795 21.2667 74.6235 20.456C74.4102 19.6027 74.1755 18.856 73.9195 18.216C73.8342 18.0453 73.6848 17.832 73.4715 17.576C73.3008 17.2773 73.0875 17 72.8315 16.744C72.6182 16.488 72.4048 16.2747 72.1915 16.104C71.9782 15.9333 71.8288 15.8267 71.7435 15.784C71.3168 15.784 70.8688 16.1893 70.3995 17C69.9302 17.768 69.4822 18.7067 69.0555 19.816C68.6288 20.9253 68.2235 22.0987 67.8395 23.336C67.4982 24.5307 67.2422 25.5547 67.0715 26.408C67.0715 27.5173 66.8582 28.3493 66.4315 28.904C66.0048 29.416 65.5568 29.672 65.0875 29.672C64.6182 29.672 64.1062 29.5013 63.5515 29.16C63.0395 28.776 62.6982 28.3493 62.5275 27.88C62.2715 27.1973 61.9942 26.4293 61.6955 25.576C61.3968 24.7227 61.0768 23.848 60.7355 22.952C60.4368 22.056 60.1168 21.1813 59.7755 20.328C59.4768 19.4747 59.1782 18.7067 58.8795 18.024C58.2822 18.8347 57.6848 19.7307 57.0875 20.712C56.5328 21.6933 55.9782 22.696 55.4235 23.72C54.9115 24.744 54.3995 25.768 53.8875 26.792C53.4182 27.7733 52.9702 28.648 52.5435 29.416C52.2448 29.8853 51.9248 30.312 51.5835 30.696C51.2422 31.0373 50.8368 31.208 50.3675 31.208C50.0262 31.208 49.6635 31.0587 49.2795 30.76C48.8955 30.4187 48.5328 30.0133 48.1915 29.544C47.8502 29.0747 47.5302 28.5413 47.2315 27.944C46.9755 27.3467 46.7835 26.7493 46.6555 26.152C46.3142 24.3173 46.0155 22.312 45.7595 20.136C45.5462 17.9173 45.3328 15.7627 45.1195 13.672C45.0768 12.9467 45.1622 12.2853 45.3755 11.688C45.6315 11.048 46.1008 10.6213 46.7835 10.408C47.5088 10.28 48.0635 10.3867 48.4475 10.728C48.8315 11.0693 49.0662 11.6027 49.1515 12.328ZM100.55 17.96C98.8855 18.9413 97.0935 19.7093 95.1735 20.264C93.2535 20.776 91.1842 21.032 88.9655 21.032C89.0508 22.5253 89.4775 23.72 90.2455 24.616C91.0135 25.4693 91.9735 25.9813 93.1255 26.152C93.8082 26.2373 94.4908 26.216 95.1735 26.088C95.8988 25.96 96.5602 25.768 97.1575 25.512C97.7975 25.2133 98.3735 24.8933 98.8855 24.552C99.3975 24.2107 99.8455 23.8693 100.23 23.528C100.614 23.1867 101.019 22.9733 101.446 22.888C101.872 22.76 102.192 22.7387 102.406 22.824C103.003 23.0373 103.216 23.6773 103.046 24.744C102.363 26.1093 101.382 27.2827 100.102 28.264C98.8215 29.2027 97.3922 29.8 95.8135 30.056C94.4482 30.312 93.0402 30.248 91.5895 29.864C90.1388 29.48 88.8375 28.7333 87.6855 27.624C86.7042 26.6427 85.9575 25.4907 85.4455 24.168C84.9335 22.8453 84.6135 21.48 84.4855 20.072C84.3575 18.7493 84.4642 17.4907 84.8055 16.296C85.1895 15.1013 85.7655 14.056 86.5335 13.16C87.3015 12.2213 88.2615 11.4533 89.4135 10.856C90.5655 10.2587 91.9095 9.91733 93.4455 9.832C95.2802 9.704 96.9442 10.0453 98.4375 10.856C99.9308 11.6667 100.976 12.7973 101.574 14.248C101.915 15.0587 102 15.7627 101.83 16.36C101.702 16.9573 101.275 17.4907 100.55 17.96ZM93.1895 13.608C92.7628 13.6933 92.2935 13.8427 91.7815 14.056C91.3122 14.2693 90.8642 14.5467 90.4375 14.888C90.0535 15.1867 89.6908 15.5493 89.3495 15.976C89.0508 16.36 88.8802 16.808 88.8375 17.32C89.5628 17.32 90.3522 17.256 91.2055 17.128C92.1015 17 92.9548 16.8507 93.7655 16.68C94.6188 16.4667 95.3868 16.232 96.0695 15.976C96.7948 15.72 97.3922 15.4427 97.8615 15.144C97.5202 14.3333 96.8802 13.8427 95.9415 13.672C95.0455 13.4587 94.1282 13.4373 93.1895 13.608ZM140.157 16.552C139.858 16.7227 139.495 16.7867 139.069 16.744C138.642 16.6587 138.279 16.3813 137.981 15.912C137.298 15.016 136.466 14.568 135.485 14.568C134.589 14.568 133.778 14.7813 133.053 15.208C132.37 15.592 131.751 16.1253 131.197 16.808C130.685 17.448 130.258 18.1733 129.917 18.984C129.575 19.7947 129.341 20.6053 129.213 21.416C128.999 22.9093 129.255 24.168 129.981 25.192C130.706 26.216 131.837 26.728 133.373 26.728C134.61 26.7707 135.997 26.536 137.533 26.024C139.111 25.4693 140.583 24.7653 141.949 23.912C142.546 23.656 143.101 23.5067 143.613 23.464C144.125 23.4213 144.551 23.6773 144.893 24.232C145.319 24.9147 145.213 25.6187 144.573 26.344C143.933 27.0267 143.079 27.6453 142.013 28.2C140.946 28.7973 139.815 29.3307 138.621 29.8C137.469 30.2267 136.295 30.5467 135.101 30.76C133.906 30.9307 132.711 30.9307 131.517 30.76C130.365 30.5893 129.277 30.184 128.253 29.544C126.631 28.4347 125.65 26.856 125.309 24.808C124.967 22.76 125.117 20.648 125.757 18.472C126.013 17.6613 126.375 16.8507 126.845 16.04C127.314 15.1867 127.869 14.4187 128.509 13.736C129.191 13.0533 129.938 12.4773 130.749 12.008C131.559 11.496 132.455 11.1547 133.437 10.984C135.015 10.728 136.53 10.8987 137.981 11.496C139.431 12.0507 140.391 13.096 140.861 14.632C140.946 14.9733 140.946 15.336 140.861 15.72C140.775 16.0613 140.541 16.3387 140.157 16.552ZM154 3.048C154.213 7.69866 154.576 12.52 155.088 17.512C155.6 22.4613 156.155 27.1973 156.752 31.72C156.88 33.5973 156.368 34.5573 155.216 34.6C154.96 34.6 154.704 34.5147 154.448 34.344C154.192 34.1307 153.957 33.8747 153.744 33.576C153.531 33.2773 153.317 32.9573 153.104 32.616C152.933 32.2747 152.827 31.976 152.784 31.72C152.443 29.544 152.123 27.24 151.824 24.808C151.525 22.376 151.248 19.944 150.992 17.512C150.779 15.0373 150.587 12.6267 150.416 10.28C150.245 7.93333 150.139 5.77866 150.096 3.816C150.181 2.792 150.331 1.93866 150.544 1.256C150.757 0.530665 151.205 0.189332 151.888 0.231998C152.613 0.274665 153.125 0.573331 153.424 1.128C153.765 1.64 153.957 2.28 154 3.048ZM177.487 17.96C175.823 18.9413 174.031 19.7093 172.111 20.264C170.191 20.776 168.122 21.032 165.903 21.032C165.988 22.5253 166.415 23.72 167.183 24.616C167.951 25.4693 168.911 25.9813 170.063 26.152C170.746 26.2373 171.428 26.216 172.111 26.088C172.836 25.96 173.498 25.768 174.095 25.512C174.735 25.2133 175.311 24.8933 175.823 24.552C176.335 24.2107 176.783 23.8693 177.167 23.528C177.551 23.1867 177.956 22.9733 178.383 22.888C178.81 22.76 179.13 22.7387 179.343 22.824C179.94 23.0373 180.154 23.6773 179.983 24.744C179.3 26.1093 178.319 27.2827 177.039 28.264C175.759 29.2027 174.33 29.8 172.751 30.056C171.386 30.312 169.978 30.248 168.527 29.864C167.076 29.48 165.775 28.7333 164.623 27.624C163.642 26.6427 162.895 25.4907 162.383 24.168C161.871 22.8453 161.551 21.48 161.423 20.072C161.295 18.7493 161.402 17.4907 161.743 16.296C162.127 15.1013 162.703 14.056 163.471 13.16C164.239 12.2213 165.199 11.4533 166.351 10.856C167.503 10.2587 168.847 9.91733 170.383 9.832C172.218 9.704 173.882 10.0453 175.375 10.856C176.868 11.6667 177.914 12.7973 178.511 14.248C178.852 15.0587 178.938 15.7627 178.767 16.36C178.639 16.9573 178.212 17.4907 177.487 17.96ZM170.127 13.608C169.7 13.6933 169.231 13.8427 168.719 14.056C168.25 14.2693 167.802 14.5467 167.375 14.888C166.991 15.1867 166.628 15.5493 166.287 15.976C165.988 16.36 165.818 16.808 165.775 17.32C166.5 17.32 167.29 17.256 168.143 17.128C169.039 17 169.892 16.8507 170.703 16.68C171.556 16.4667 172.324 16.232 173.007 15.976C173.732 15.72 174.33 15.4427 174.799 15.144C174.458 14.3333 173.818 13.8427 172.879 13.672C171.983 13.4587 171.066 13.4373 170.127 13.608ZM200.437 9.32C200.607 10.5147 200.735 11.7947 200.821 13.16C200.949 14.4827 201.034 15.8267 201.077 17.192C201.162 18.5573 201.205 19.88 201.205 21.16C201.205 22.44 201.183 23.592 201.141 24.616C202.506 25.5547 203.317 26.3867 203.573 27.112C203.871 27.8373 203.914 28.4773 203.701 29.032C203.445 29.8 202.975 30.2053 202.293 30.248C201.653 30.248 200.906 30.0133 200.053 29.544C199.455 29.9707 198.773 30.44 198.005 30.952C197.237 31.4213 196.426 31.8907 195.573 32.36C194.719 32.7867 193.866 33.1707 193.013 33.512C192.159 33.8533 191.37 34.088 190.645 34.216C189.279 34.4293 188.042 34.1733 186.933 33.448C185.866 32.7227 185.141 31.6347 184.757 30.184C184.501 29.2027 184.437 28.2 184.565 27.176C184.693 26.1093 185.013 25.1067 185.525 24.168C186.037 23.1867 186.719 22.312 187.573 21.544C188.469 20.776 189.514 20.1787 190.709 19.752C191.007 19.624 191.413 19.5173 191.925 19.432C192.479 19.3467 193.034 19.3253 193.589 19.368C194.186 19.368 194.783 19.4747 195.381 19.688C195.978 19.9013 196.533 20.264 197.045 20.776C197.045 20.0507 197.023 19.2613 196.981 18.408C196.981 17.512 196.959 16.616 196.917 15.72C196.874 14.824 196.81 13.992 196.725 13.224C196.682 12.4133 196.618 11.7307 196.533 11.176C196.447 10.536 196.191 10.152 195.765 10.024C195.381 9.85333 194.89 9.87466 194.293 10.088C193.269 10.4293 192.074 11.0907 190.709 12.072C189.343 13.0533 188.042 14.0987 186.805 15.208C186.421 15.592 185.973 15.7627 185.461 15.72C184.991 15.6773 184.586 15.4853 184.245 15.144C183.903 14.8027 183.711 14.4187 183.669 13.992C183.626 13.5227 183.797 13.032 184.181 12.52C184.906 11.752 185.717 10.9627 186.613 10.152C187.509 9.34133 188.447 8.616 189.429 7.976C190.41 7.29333 191.413 6.73867 192.437 6.312C193.461 5.88533 194.485 5.65066 195.509 5.608C197.002 5.56533 198.154 5.90667 198.965 6.632C199.775 7.31467 200.266 8.21066 200.437 9.32ZM193.013 23.08C192.458 23.208 191.861 23.4853 191.22 23.912C190.623 24.296 190.069 24.7867 189.557 25.384C189.087 25.9387 188.725 26.5787 188.469 27.304C188.255 27.9867 188.255 28.6693 188.469 29.352C188.554 29.608 188.725 29.8 188.981 29.928C189.279 30.056 189.599 30.0773 189.941 29.992C190.965 29.7787 192.117 29.3733 193.397 28.776C194.719 28.136 195.765 27.4533 196.533 26.728C196.533 26.472 196.405 26.152 196.149 25.768C195.893 25.3413 195.594 24.936 195.253 24.552C194.911 24.1253 194.527 23.7627 194.101 23.464C193.717 23.1653 193.354 23.0373 193.013 23.08ZM226.573 10.92C225.805 11.3467 224.994 11.7947 224.141 12.264C223.33 12.7333 222.498 13.288 221.645 13.928C220.834 14.5253 220.045 15.2507 219.277 16.104C218.551 16.9147 217.89 17.896 217.293 19.048C216.439 20.6693 215.863 22.3333 215.565 24.04C215.266 25.704 215.074 27.3467 214.989 28.968C214.989 29.736 214.797 30.5253 214.413 31.336C214.071 32.104 213.581 32.488 212.941 32.488C212.13 32.488 211.469 32.0827 210.957 31.272C210.487 30.4187 210.167 29.608 209.997 28.84C209.271 25.8107 208.674 22.824 208.205 19.88C207.735 16.8933 207.33 13.928 206.989 10.984C206.989 10.3867 207.159 10.0027 207.501 9.832C207.885 9.66133 208.311 9.59733 208.781 9.64C209.293 9.68267 209.783 9.81067 210.253 10.024C210.722 10.2373 210.999 10.5787 211.085 11.048C211.255 12.6267 211.469 14.2907 211.725 16.04C211.981 17.7467 212.237 19.2187 212.493 20.456C212.663 19.0053 213.133 17.5973 213.901 16.232C214.669 14.8667 215.607 13.6293 216.717 12.52C217.869 11.4107 219.149 10.472 220.557 9.704C222.007 8.936 223.479 8.424 224.973 8.168C225.613 8.08266 226.146 8.08266 226.573 8.168C226.999 8.25333 227.298 8.40266 227.469 8.616C227.639 8.82933 227.661 9.17066 227.533 9.64C227.447 10.1093 227.127 10.536 226.573 10.92ZM244.005 17.192C244.773 19.2827 245.839 20.328 247.205 20.328C248.101 20.328 249.018 20.136 249.957 19.752C250.938 19.368 251.898 18.8987 252.837 18.344C253.775 17.7467 254.671 17.1493 255.525 16.552C256.378 15.912 257.125 15.336 257.765 14.824C258.191 14.5253 258.597 14.3547 258.981 14.312C259.407 14.2267 259.834 14.3547 260.261 14.696C260.602 14.9947 260.837 15.4 260.965 15.912C261.093 16.424 261.007 16.8507 260.708 17.192C259.599 18.344 258.362 19.4107 256.997 20.392C255.674 21.3733 254.351 22.2053 253.029 22.888C251.706 23.5707 250.469 24.104 249.317 24.488C248.165 24.872 247.247 25.0427 246.565 25C244.986 24.9147 243.834 24.488 243.109 23.72C242.426 22.952 241.807 21.8853 241.253 20.52C241.039 19.9227 240.719 19.432 240.293 19.048C239.909 18.6213 239.333 18.408 238.565 18.408C237.455 18.408 236.474 18.8773 235.621 19.816C234.767 20.712 234.106 21.7787 233.637 23.016C233.423 23.4853 233.061 23.7627 232.549 23.848C232.079 23.8907 231.759 23.8907 231.589 23.848C230.991 23.72 230.543 23.4853 230.245 23.144C229.946 22.8027 229.797 22.44 229.797 22.056C229.925 20.8613 230.287 19.752 230.885 18.728C231.525 17.704 232.293 16.808 233.189 16.04C234.085 15.272 235.066 14.6747 236.133 14.248C237.242 13.8213 238.309 13.608 239.333 13.608C241.509 13.608 243.066 14.8027 244.005 17.192ZM279.192 17.192C279.96 19.2827 281.027 20.328 282.392 20.328C283.288 20.328 284.205 20.136 285.144 19.752C286.125 19.368 287.085 18.8987 288.024 18.344C288.963 17.7467 289.859 17.1493 290.712 16.552C291.565 15.912 292.312 15.336 292.952 14.824C293.379 14.5253 293.784 14.3547 294.168 14.312C294.595 14.2267 295.021 14.3547 295.448 14.696C295.789 14.9947 296.024 15.4 296.152 15.912C296.28 16.424 296.195 16.8507 295.896 17.192C294.787 18.344 293.549 19.4107 292.184 20.392C290.861 21.3733 289.539 22.2053 288.216 22.888C286.893 23.5707 285.656 24.104 284.504 24.488C283.352 24.872 282.435 25.0427 281.752 25C280.173 24.9147 279.021 24.488 278.296 23.72C277.613 22.952 276.995 21.8853 276.44 20.52C276.227 19.9227 275.907 19.432 275.48 19.048C275.096 18.6213 274.52 18.408 273.752 18.408C272.643 18.408 271.661 18.8773 270.808 19.816C269.955 20.712 269.293 21.7787 268.824 23.016C268.611 23.4853 268.248 23.7627 267.736 23.848C267.267 23.8907 266.947 23.8907 266.776 23.848C266.179 23.72 265.731 23.4853 265.432 23.144C265.133 22.8027 264.984 22.44 264.984 22.056C265.112 20.8613 265.475 19.752 266.072 18.728C266.712 17.704 267.48 16.808 268.376 16.04C269.272 15.272 270.253 14.6747 271.32 14.248C272.429 13.8213 273.496 13.608 274.52 13.608C276.696 13.608 278.253 14.8027 279.192 17.192Z" fill="black"/>
</svg>
